<svg id="visual" viewBox="0 0 900 600" width="900" height="600" xmlns="http://www.w3.org/2000/svg" xmlns:xlink="http://www.w3.org/1999/xlink" version="1.1"><rect x="0" y="0" width="900" height="600" fill="#1F2731"></rect><defs><linearGradient id="grad1_0" x1="33.3%" y1="0%" x2="100%" y2="100%"><stop offset="20%" stop-color="#12697d" stop-opacity="1"></stop><stop offset="80%" stop-color="#12697d" stop-opacity="1"></stop></linearGradient></defs><defs><linearGradient id="grad1_1" x1="33.3%" y1="0%" x2="100%" y2="100%"><stop offset="20%" stop-color="#12697d" stop-opacity="1"></stop><stop offset="80%" stop-color="#215165" stop-opacity="1"></stop></linearGradient></defs><defs><linearGradient id="grad1_2" x1="33.3%" y1="0%" x2="100%" y2="100%"><stop offset="20%" stop-color="#243b4b" stop-opacity="1"></stop><stop offset="80%" stop-color="#215165" stop-opacity="1"></stop></linearGradient></defs><defs><linearGradient id="grad1_3" x1="33.3%" y1="0%" x2="100%" y2="100%"><stop offset="20%" stop-color="#243b4b" stop-opacity="1"></stop><stop offset="80%" stop-color="#1f2731" stop-opacity="1"></stop></linearGradient></defs><defs><linearGradient id="grad2_0" x1="0%" y1="0%" x2="66.7%" y2="100%"><stop offset="20%" stop-color="#12697d" stop-opacity="1"></stop><stop offset="80%" stop-color="#12697d" stop-opacity="1"></stop></linearGradient></defs><defs><linearGradient id="grad2_1" x1="0%" y1="0%" x2="66.7%" y2="100%"><stop offset="20%" stop-color="#215165" stop-opacity="1"></stop><stop offset="80%" stop-color="#12697d" stop-opacity="1"></stop></linearGradient></defs><defs><linearGradient id="grad2_2" x1="0%" y1="0%" x2="66.7%" y2="100%"><stop offset="20%" stop-color="#215165" stop-opacity="1"></stop><stop offset="80%" stop-color="#243b4b" stop-opacity="1"></stop></linearGradient></defs><defs><linearGradient id="grad2_3" x1="0%" y1="0%" x2="66.7%" y2="100%"><stop offset="20%" stop-color="#1f2731" stop-opacity="1"></stop><stop offset="80%" stop-color="#243b4b" stop-opacity="1"></stop></linearGradient></defs><g transform="translate(900, 0)"><path d="M0 378.6C-46.8 366.6 -93.7 354.6 -140.1 338.1C-186.4 321.7 -232.3 300.8 -267.7 267.7C-303.1 234.6 -327.9 189.4 -344.6 142.7C-361.3 96.1 -370 48 -378.6 0L0 0Z" fill="#22313e"></path><path d="M0 283.9C-35.1 274.9 -70.3 265.9 -105 253.6C-139.8 241.3 -174.3 225.6 -200.8 200.8C-227.3 176 -245.9 142 -258.5 107.1C-271 72.1 -277.5 36 -283.9 0L0 0Z" fill="#234659"></path><path d="M0 189.3C-23.4 183.3 -46.8 177.3 -70 169.1C-93.2 160.8 -116.2 150.4 -133.8 133.8C-151.5 117.3 -163.9 94.7 -172.3 71.4C-180.7 48 -185 24 -189.3 0L0 0Z" fill="#1c5d72"></path><path d="M0 94.6C-11.7 91.6 -23.4 88.6 -35 84.5C-46.6 80.4 -58.1 75.2 -66.9 66.9C-75.8 58.7 -82 47.3 -86.2 35.7C-90.3 24 -92.5 12 -94.6 0L0 0Z" fill="#12697d"></path></g><g transform="translate(0, 600)"><path d="M0 -378.6C43.1 -357.6 86.1 -336.7 133.2 -321.5C180.2 -306.3 231.3 -296.9 267.7 -267.7C304.1 -238.5 325.8 -189.5 341.8 -141.6C357.9 -93.7 368.2 -46.8 378.6 0L0 0Z" fill="#22313e"></path><path d="M0 -283.9C32.3 -268.2 64.6 -252.5 99.9 -241.1C135.2 -229.7 173.5 -222.7 200.8 -200.8C228.1 -178.9 244.4 -142.1 256.4 -106.2C268.4 -70.3 276.2 -35.1 283.9 0L0 0Z" fill="#234659"></path><path d="M0 -189.3C21.5 -178.8 43.1 -168.3 66.6 -160.8C90.1 -153.2 115.7 -148.5 133.8 -133.8C152 -119.2 162.9 -94.8 170.9 -70.8C178.9 -46.8 184.1 -23.4 189.3 0L0 0Z" fill="#1c5d72"></path><path d="M0 -94.6C10.8 -89.4 21.5 -84.2 33.3 -80.4C45.1 -76.6 57.8 -74.2 66.9 -66.9C76 -59.6 81.5 -47.4 85.5 -35.4C89.5 -23.4 92.1 -11.7 94.6 0L0 0Z" fill="#12697d"></path></g></svg>