<svg id="visual" viewBox="0 0 900 450" width="900" height="450" xmlns="http://www.w3.org/2000/svg" xmlns:xlink="http://www.w3.org/1999/xlink" version="1.1"><g><g transform="translate(641 275)"><path d="M62.5 -57.6C82.7 -42.2 102.2 -21.1 104.1 1.9C106 24.9 90.4 49.9 70.2 69.3C49.9 88.8 24.9 102.8 -1.6 104.4C-28.1 105.9 -56.1 95 -76 75.6C-95.9 56.1 -107.7 28.1 -104 3.7C-100.2 -20.6 -81.1 -41.3 -61.2 -56.7C-41.3 -72.2 -20.6 -82.4 0.2 -82.7C21.1 -82.9 42.2 -73.1 62.5 -57.6Z" fill="#7C48C2"></path></g><g transform="translate(42 336)"><path d="M62 -58.4C77.9 -46 86.9 -23 87.2 0.3C87.4 23.6 79.1 47.1 63.1 58.2C47.1 69.3 23.6 68 2.3 65.7C-19 63.4 -37.9 60.2 -50.1 49C-62.3 37.9 -67.7 19 -69.8 -2.2C-72 -23.3 -70.9 -46.5 -58.7 -59C-46.5 -71.4 -23.3 -73 -0.1 -72.9C23 -72.7 46 -70.8 62 -58.4Z" fill="#7C48C2"></path></g><g transform="translate(215 97)"><path d="M56.6 -58C70 -43.2 75.1 -21.6 74.4 -0.8C73.6 20.1 66.9 40.2 53.6 55.6C40.2 71 20.1 81.8 -0.9 82.7C-21.9 83.6 -43.8 74.7 -58.4 59.3C-72.9 43.8 -80.1 21.9 -76.5 3.7C-72.8 -14.6 -58.3 -29.2 -43.7 -44C-29.2 -58.7 -14.6 -73.6 3.5 -77.1C21.6 -80.7 43.2 -72.8 56.6 -58Z" fill="#7C48C2"></path></g><g transform="translate(859 161)"><path d="M30 -31.5C36.5 -23.5 37.9 -11.7 36.7 -1.2C35.5 9.4 31.9 18.8 25.3 28.6C18.8 38.3 9.4 48.5 -0.1 48.6C-9.7 48.8 -19.4 38.9 -29.3 29.1C-39.2 19.4 -49.4 9.7 -50.3 -1C-51.3 -11.6 -43.1 -23.2 -33.1 -31.2C-23.2 -39.2 -11.6 -43.6 0.1 -43.7C11.7 -43.7 23.5 -39.5 30 -31.5Z" fill="#7C48C2"></path></g><g transform="translate(414 384)"><path d="M28.1 -27.7C35.3 -21 39.2 -10.5 40.2 1C41.2 12.5 39.3 25 32.2 34.7C25 44.5 12.5 51.5 0.5 51C-11.5 50.5 -23 42.5 -31.4 32.7C-39.7 23 -45 11.5 -45.6 -0.6C-46.2 -12.7 -42.1 -25.3 -33.7 -32.1C-25.3 -38.8 -12.7 -39.6 -1.1 -38.5C10.5 -37.4 21 -34.4 28.1 -27.7Z" fill="#7C48C2"></path></g><g transform="translate(462 37)"><path d="M50 -50.7C60.6 -39.4 62 -19.7 62.7 0.6C63.3 20.9 63 41.9 52.4 53.9C41.9 66 20.9 69.2 0.6 68.6C-19.7 68 -39.3 63.5 -54.3 51.4C-69.2 39.3 -79.4 19.7 -80.2 -0.9C-81.1 -21.5 -72.7 -42.9 -57.8 -54.2C-42.9 -65.5 -21.5 -66.6 -0.9 -65.7C19.7 -64.9 39.4 -62 50 -50.7Z" fill="#7C48C2"></path></g><g transform="translate(866 411)"><path d="M59.1 -55.5C76.7 -41.6 91.1 -20.8 92 0.9C92.9 22.6 80.4 45.2 62.8 57.3C45.2 69.3 22.6 70.9 -0.1 70.9C-22.7 71 -45.5 69.6 -62.2 57.5C-79 45.5 -89.7 22.7 -87.4 2.3C-85.1 -18.2 -69.8 -36.3 -53.1 -50.3C-36.3 -64.2 -18.2 -73.9 1.3 -75.2C20.8 -76.5 41.6 -69.4 59.1 -55.5Z" fill="#7C48C2"></path></g></g></svg>