<svg width="351" height="20" viewBox="0 0 351 20" fill="none" xmlns="http://www.w3.org/2000/svg">
<path d="M0.488159 1.12927V19.9999C0.488159 19.9999 32.3167 3.62845 82.6111 8.46983C135.404 13.5517 155.935 19.703 196.019 14.9634C258.1 7.62284 314.804 8.64303 350.488 5.71423V1.12927L212.639 1.14813L0.488159 1.12927Z" fill="#14CC98" fill-opacity="0.2"/>
<path d="M0.488159 2.154e-06V8.18754C0.488159 8.18754 35.4652 27.5229 115.202 10.4462C125.749 8.18754 136.365 7.11213 144.003 8.18754C156.635 9.96624 199.651 16.6574 244.561 16.6574C285.077 16.6574 325.593 0 325.593 0L212.343 0.0194643L0.488159 2.154e-06Z" fill="#14CC98" fill-opacity="0.6"/>
<path d="M350.488 7.61905C297.017 3.38836 243.736 -6.08334 159.846 11.8578C97.2759 25.2393 30.1434 9.46793 0.488159 2.9691V0H350.488V7.61905Z" fill="#14CC98"/>
</svg>
