<svg id="visual" viewBox="0 0 900 450" width="900" height="450" xmlns="http://www.w3.org/2000/svg" xmlns:xlink="http://www.w3.org/1999/xlink" version="1.1"><path d="M0 88L21.5 88.5C43 89 86 90 128.8 96C171.7 102 214.3 113 257.2 108.3C300 103.7 343 83.3 385.8 72.7C428.7 62 471.3 61 514.2 70.7C557 80.3 600 100.7 642.8 114C685.7 127.3 728.3 133.7 771.2 128.2C814 122.7 857 105.3 878.5 96.7L900 88L900 0L878.5 0C857 0 814 0 771.2 0C728.3 0 685.7 0 642.8 0C600 0 557 0 514.2 0C471.3 0 428.7 0 385.8 0C343 0 300 0 257.2 0C214.3 0 171.7 0 128.8 0C86 0 43 0 21.5 0L0 0Z" fill="#0e0e0e" stroke-linecap="round" stroke-linejoin="miter"></path></svg>