<svg id="visual" viewBox="0 0 900 200" width="900" height="200" xmlns="http://www.w3.org/2000/svg" xmlns:xlink="http://www.w3.org/1999/xlink" version="1.1"><rect x="0" y="0" width="900" height="200" fill="#7c48c2"></rect><path d="M0 44L21.5 55.2C43 66.3 86 88.7 128.8 99C171.7 109.3 214.3 107.7 257.2 106.2C300 104.7 343 103.3 385.8 99.3C428.7 95.3 471.3 88.7 514.2 92C557 95.3 600 108.7 642.8 103C685.7 97.3 728.3 72.7 771.2 55C814 37.3 857 26.7 878.5 21.3L900 16L900 201L878.5 201C857 201 814 201 771.2 201C728.3 201 685.7 201 642.8 201C600 201 557 201 514.2 201C471.3 201 428.7 201 385.8 201C343 201 300 201 257.2 201C214.3 201 171.7 201 128.8 201C86 201 43 201 21.5 201L0 201Z" fill="#7c48c2"></path><path d="M0 37L21.5 47.7C43 58.3 86 79.7 128.8 90.5C171.7 101.3 214.3 101.7 257.2 95.7C300 89.7 343 77.3 385.8 82.2C428.7 87 471.3 109 514.2 109.3C557 109.7 600 88.3 642.8 80C685.7 71.7 728.3 76.3 771.2 71.3C814 66.3 857 51.7 878.5 44.3L900 37L900 201L878.5 201C857 201 814 201 771.2 201C728.3 201 685.7 201 642.8 201C600 201 557 201 514.2 201C471.3 201 428.7 201 385.8 201C343 201 300 201 257.2 201C214.3 201 171.7 201 128.8 201C86 201 43 201 21.5 201L0 201Z" fill="#9448bc"></path><path d="M0 64L21.5 69.2C43 74.3 86 84.7 128.8 84.8C171.7 85 214.3 75 257.2 69.5C300 64 343 63 385.8 65C428.7 67 471.3 72 514.2 86C557 100 600 123 642.8 130.8C685.7 138.7 728.3 131.3 771.2 128.8C814 126.3 857 128.7 878.5 129.8L900 131L900 201L878.5 201C857 201 814 201 771.2 201C728.3 201 685.7 201 642.8 201C600 201 557 201 514.2 201C471.3 201 428.7 201 385.8 201C343 201 300 201 257.2 201C214.3 201 171.7 201 128.8 201C86 201 43 201 21.5 201L0 201Z" fill="#a749b6"></path><path d="M0 79L21.5 91.8C43 104.7 86 130.3 128.8 139C171.7 147.7 214.3 139.3 257.2 128.3C300 117.3 343 103.7 385.8 99.3C428.7 95 471.3 100 514.2 99.3C557 98.7 600 92.3 642.8 93.7C685.7 95 728.3 104 771.2 107.3C814 110.7 857 108.3 878.5 107.2L900 106L900 201L878.5 201C857 201 814 201 771.2 201C728.3 201 685.7 201 642.8 201C600 201 557 201 514.2 201C471.3 201 428.7 201 385.8 201C343 201 300 201 257.2 201C214.3 201 171.7 201 128.8 201C86 201 43 201 21.5 201L0 201Z" fill="#b84bb0"></path><path d="M0 118L21.5 115.5C43 113 86 108 128.8 116.2C171.7 124.3 214.3 145.7 257.2 146.3C300 147 343 127 385.8 115.7C428.7 104.3 471.3 101.7 514.2 109.5C557 117.3 600 135.7 642.8 139C685.7 142.3 728.3 130.7 771.2 131.3C814 132 857 145 878.5 151.5L900 158L900 201L878.5 201C857 201 814 201 771.2 201C728.3 201 685.7 201 642.8 201C600 201 557 201 514.2 201C471.3 201 428.7 201 385.8 201C343 201 300 201 257.2 201C214.3 201 171.7 201 128.8 201C86 201 43 201 21.5 201L0 201Z" fill="#c64faa"></path><path d="M0 151L21.5 151.2C43 151.3 86 151.7 128.8 154.5C171.7 157.3 214.3 162.7 257.2 162.8C300 163 343 158 385.8 155.8C428.7 153.7 471.3 154.3 514.2 155.7C557 157 600 159 642.8 155.3C685.7 151.7 728.3 142.3 771.2 144.7C814 147 857 161 878.5 168L900 175L900 201L878.5 201C857 201 814 201 771.2 201C728.3 201 685.7 201 642.8 201C600 201 557 201 514.2 201C471.3 201 428.7 201 385.8 201C343 201 300 201 257.2 201C214.3 201 171.7 201 128.8 201C86 201 43 201 21.5 201L0 201Z" fill="#d254a4"></path><path d="M0 142L21.5 141.5C43 141 86 140 128.8 147.3C171.7 154.7 214.3 170.3 257.2 171.7C300 173 343 160 385.8 154C428.7 148 471.3 149 514.2 150.3C557 151.7 600 153.3 642.8 159.3C685.7 165.3 728.3 175.7 771.2 178.8C814 182 857 178 878.5 176L900 174L900 201L878.5 201C857 201 814 201 771.2 201C728.3 201 685.7 201 642.8 201C600 201 557 201 514.2 201C471.3 201 428.7 201 385.8 201C343 201 300 201 257.2 201C214.3 201 171.7 201 128.8 201C86 201 43 201 21.5 201L0 201Z" fill="#dc5b9e"></path><path d="M0 168L21.5 171.7C43 175.3 86 182.7 128.8 181.7C171.7 180.7 214.3 171.3 257.2 168.3C300 165.3 343 168.7 385.8 172.3C428.7 176 471.3 180 514.2 179.2C557 178.3 600 172.7 642.8 171C685.7 169.3 728.3 171.7 771.2 172C814 172.3 857 170.7 878.5 169.8L900 169L900 201L878.5 201C857 201 814 201 771.2 201C728.3 201 685.7 201 642.8 201C600 201 557 201 514.2 201C471.3 201 428.7 201 385.8 201C343 201 300 201 257.2 201C214.3 201 171.7 201 128.8 201C86 201 43 201 21.5 201L0 201Z" fill="#e56399"></path></svg>