<svg id="visual" viewBox="0 0 900 450" width="900" height="450" xmlns="http://www.w3.org/2000/svg" xmlns:xlink="http://www.w3.org/1999/xlink" version="1.1"><path d="M0 293L21.5 299.3C43 305.7 86 318.3 128.8 317.2C171.7 316 214.3 301 257.2 308.3C300 315.7 343 345.3 385.8 352.8C428.7 360.3 471.3 345.7 514.2 330.7C557 315.7 600 300.3 642.8 300.2C685.7 300 728.3 315 771.2 321.7C814 328.3 857 326.7 878.5 325.8L900 325L900 451L878.5 451C857 451 814 451 771.2 451C728.3 451 685.7 451 642.8 451C600 451 557 451 514.2 451C471.3 451 428.7 451 385.8 451C343 451 300 451 257.2 451C214.3 451 171.7 451 128.8 451C86 451 43 451 21.5 451L0 451Z" fill="#0e0e0e" stroke-linecap="round" stroke-linejoin="miter"></path></svg>