<svg id="visual" viewBox="0 0 900 200" width="900" height="200" xmlns="http://www.w3.org/2000/svg" xmlns:xlink="http://www.w3.org/1999/xlink" version="1.1"><rect x="0" y="0" width="900" height="200" fill="#7c48c2"></rect><path d="M0 161L21.5 159.3C43 157.7 86 154.3 128.8 144.8C171.7 135.3 214.3 119.7 257.2 111.7C300 103.7 343 103.3 385.8 110.3C428.7 117.3 471.3 131.7 514.2 136.3C557 141 600 136 642.8 132.2C685.7 128.3 728.3 125.7 771.2 121.2C814 116.7 857 110.3 878.5 107.2L900 104L900 0L878.5 0C857 0 814 0 771.2 0C728.3 0 685.7 0 642.8 0C600 0 557 0 514.2 0C471.3 0 428.7 0 385.8 0C343 0 300 0 257.2 0C214.3 0 171.7 0 128.8 0C86 0 43 0 21.5 0L0 0Z" fill="#7c48c2"></path><path d="M0 100L21.5 96.5C43 93 86 86 128.8 84C171.7 82 214.3 85 257.2 94.2C300 103.3 343 118.7 385.8 124.7C428.7 130.7 471.3 127.3 514.2 121.2C557 115 600 106 642.8 99.5C685.7 93 728.3 89 771.2 94.8C814 100.7 857 116.3 878.5 124.2L900 132L900 0L878.5 0C857 0 814 0 771.2 0C728.3 0 685.7 0 642.8 0C600 0 557 0 514.2 0C471.3 0 428.7 0 385.8 0C343 0 300 0 257.2 0C214.3 0 171.7 0 128.8 0C86 0 43 0 21.5 0L0 0Z" fill="#603a90"></path><path d="M0 91L21.5 93.2C43 95.3 86 99.7 128.8 96.8C171.7 94 214.3 84 257.2 77C300 70 343 66 385.8 69.3C428.7 72.7 471.3 83.3 514.2 83.7C557 84 600 74 642.8 71.5C685.7 69 728.3 74 771.2 79.8C814 85.7 857 92.3 878.5 95.7L900 99L900 0L878.5 0C857 0 814 0 771.2 0C728.3 0 685.7 0 642.8 0C600 0 557 0 514.2 0C471.3 0 428.7 0 385.8 0C343 0 300 0 257.2 0C214.3 0 171.7 0 128.8 0C86 0 43 0 21.5 0L0 0Z" fill="#442c61"></path><path d="M0 73L21.5 73.5C43 74 86 75 128.8 74.8C171.7 74.7 214.3 73.3 257.2 72.5C300 71.7 343 71.3 385.8 67C428.7 62.7 471.3 54.3 514.2 53.7C557 53 600 60 642.8 60.8C685.7 61.7 728.3 56.3 771.2 54.3C814 52.3 857 53.7 878.5 54.3L900 55L900 0L878.5 0C857 0 814 0 771.2 0C728.3 0 685.7 0 642.8 0C600 0 557 0 514.2 0C471.3 0 428.7 0 385.8 0C343 0 300 0 257.2 0C214.3 0 171.7 0 128.8 0C86 0 43 0 21.5 0L0 0Z" fill="#291e36"></path><path d="M0 36L21.5 36.3C43 36.7 86 37.3 128.8 35.3C171.7 33.3 214.3 28.7 257.2 27C300 25.3 343 26.7 385.8 30.2C428.7 33.7 471.3 39.3 514.2 42C557 44.7 600 44.3 642.8 39.7C685.7 35 728.3 26 771.2 22.8C814 19.7 857 22.3 878.5 23.7L900 25L900 0L878.5 0C857 0 814 0 771.2 0C728.3 0 685.7 0 642.8 0C600 0 557 0 514.2 0C471.3 0 428.7 0 385.8 0C343 0 300 0 257.2 0C214.3 0 171.7 0 128.8 0C86 0 43 0 21.5 0L0 0Z" fill="#0e0e0e"></path></svg>