<svg id="visual" viewBox="0 0 900 450" width="900" height="450" xmlns="http://www.w3.org/2000/svg" xmlns:xlink="http://www.w3.org/1999/xlink" version="1.1"><rect x="0" y="0" width="900" height="450" fill="#1F2731"></rect><defs><linearGradient id="grad1_0" x1="50%" y1="0%" x2="100%" y2="100%"><stop offset="10%" stop-color="#e56399" stop-opacity="1"></stop><stop offset="90%" stop-color="#e56399" stop-opacity="1"></stop></linearGradient></defs><defs><linearGradient id="grad1_1" x1="50%" y1="0%" x2="100%" y2="100%"><stop offset="10%" stop-color="#e56399" stop-opacity="1"></stop><stop offset="90%" stop-color="#a45995" stop-opacity="1"></stop></linearGradient></defs><defs><linearGradient id="grad1_2" x1="50%" y1="0%" x2="100%" y2="100%"><stop offset="10%" stop-color="#674e7f" stop-opacity="1"></stop><stop offset="90%" stop-color="#a45995" stop-opacity="1"></stop></linearGradient></defs><defs><linearGradient id="grad1_3" x1="50%" y1="0%" x2="100%" y2="100%"><stop offset="10%" stop-color="#674e7f" stop-opacity="1"></stop><stop offset="90%" stop-color="#373d5b" stop-opacity="1"></stop></linearGradient></defs><defs><linearGradient id="grad1_4" x1="50%" y1="0%" x2="100%" y2="100%"><stop offset="10%" stop-color="#1f2731" stop-opacity="1"></stop><stop offset="90%" stop-color="#373d5b" stop-opacity="1"></stop></linearGradient></defs><defs><linearGradient id="grad2_0" x1="0%" y1="0%" x2="50%" y2="100%"><stop offset="10%" stop-color="#e56399" stop-opacity="1"></stop><stop offset="90%" stop-color="#e56399" stop-opacity="1"></stop></linearGradient></defs><defs><linearGradient id="grad2_1" x1="0%" y1="0%" x2="50%" y2="100%"><stop offset="10%" stop-color="#a45995" stop-opacity="1"></stop><stop offset="90%" stop-color="#e56399" stop-opacity="1"></stop></linearGradient></defs><defs><linearGradient id="grad2_2" x1="0%" y1="0%" x2="50%" y2="100%"><stop offset="10%" stop-color="#a45995" stop-opacity="1"></stop><stop offset="90%" stop-color="#674e7f" stop-opacity="1"></stop></linearGradient></defs><defs><linearGradient id="grad2_3" x1="0%" y1="0%" x2="50%" y2="100%"><stop offset="10%" stop-color="#373d5b" stop-opacity="1"></stop><stop offset="90%" stop-color="#674e7f" stop-opacity="1"></stop></linearGradient></defs><defs><linearGradient id="grad2_4" x1="0%" y1="0%" x2="50%" y2="100%"><stop offset="10%" stop-color="#373d5b" stop-opacity="1"></stop><stop offset="90%" stop-color="#1f2731" stop-opacity="1"></stop></linearGradient></defs><g transform="translate(900, 0)"><path d="M0 360C-47.9 355.8 -95.8 351.7 -137.8 332.6C-179.7 313.5 -215.8 279.5 -243.2 243.2C-270.7 207 -289.6 168.4 -307.7 127.4C-325.7 86.5 -342.8 43.3 -360 0L0 0Z" fill="#283246"></path><path d="M0 288C-38.3 284.7 -76.6 281.3 -110.2 266.1C-143.8 250.8 -172.6 223.6 -194.6 194.6C-216.6 165.6 -231.7 134.7 -246.1 101.9C-260.5 69.2 -274.3 34.6 -288 0L0 0Z" fill="#4d466e"></path><path d="M0 216C-28.7 213.5 -57.5 211 -82.7 199.6C-107.8 188.1 -129.5 167.7 -145.9 145.9C-162.4 124.2 -173.8 101 -184.6 76.5C-195.4 51.9 -205.7 26 -216 0L0 0Z" fill="#84548d"></path><path d="M0 144C-19.2 142.3 -38.3 140.7 -55.1 133C-71.9 125.4 -86.3 111.8 -97.3 97.3C-108.3 82.8 -115.8 67.3 -123.1 51C-130.3 34.6 -137.1 17.3 -144 0L0 0Z" fill="#c55e9a"></path><path d="M0 72C-9.6 71.2 -19.2 70.3 -27.6 66.5C-35.9 62.7 -43.2 55.9 -48.6 48.6C-54.1 41.4 -57.9 33.7 -61.5 25.5C-65.1 17.3 -68.6 8.7 -72 0L0 0Z" fill="#e56399"></path></g><g transform="translate(0, 450)"><path d="M0 -360C51.5 -359 102.9 -357.9 137.8 -332.6C172.6 -307.3 190.9 -257.6 223.4 -223.4C256 -189.3 302.8 -170.5 328 -135.9C353.1 -101.2 356.6 -50.6 360 0L0 0Z" fill="#283246"></path><path d="M0 -288C41.2 -287.2 82.3 -286.3 110.2 -266.1C138.1 -245.8 152.7 -206.1 178.8 -178.8C204.8 -151.4 242.3 -136.4 262.4 -108.7C282.5 -80.9 285.2 -40.5 288 0L0 0Z" fill="#4d466e"></path><path d="M0 -216C30.9 -215.4 61.7 -214.8 82.7 -199.6C103.6 -184.4 114.5 -154.6 134.1 -134.1C153.6 -113.6 181.7 -102.3 196.8 -81.5C211.9 -60.7 213.9 -30.4 216 0L0 0Z" fill="#84548d"></path><path d="M0 -144C20.6 -143.6 41.2 -143.2 55.1 -133C69.1 -122.9 76.4 -103.1 89.4 -89.4C102.4 -75.7 121.1 -68.2 131.2 -54.3C141.2 -40.5 142.6 -20.2 144 0L0 0Z" fill="#c55e9a"></path><path d="M0 -72C10.3 -71.8 20.6 -71.6 27.6 -66.5C34.5 -61.5 38.2 -51.5 44.7 -44.7C51.2 -37.9 60.6 -34.1 65.6 -27.2C70.6 -20.2 71.3 -10.1 72 0L0 0Z" fill="#e56399"></path></g></svg>