<svg id="visual" viewBox="0 0 900 200" width="900" height="200" xmlns="http://www.w3.org/2000/svg" xmlns:xlink="http://www.w3.org/1999/xlink" version="1.1"><rect x="0" y="0" width="900" height="200" fill="#E56399"></rect><path d="M0 140L21.5 137.8C43 135.7 86 131.3 128.8 131.5C171.7 131.7 214.3 136.3 257.2 128.5C300 120.7 343 100.3 385.8 82.2C428.7 64 471.3 48 514.2 48.2C557 48.3 600 64.7 642.8 80.7C685.7 96.7 728.3 112.3 771.2 107C814 101.7 857 75.3 878.5 62.2L900 49L900 201L878.5 201C857 201 814 201 771.2 201C728.3 201 685.7 201 642.8 201C600 201 557 201 514.2 201C471.3 201 428.7 201 385.8 201C343 201 300 201 257.2 201C214.3 201 171.7 201 128.8 201C86 201 43 201 21.5 201L0 201Z" fill="#1f2731"></path><path d="M0 70L21.5 67C43 64 86 58 128.8 56.2C171.7 54.3 214.3 56.7 257.2 60.8C300 65 343 71 385.8 82.7C428.7 94.3 471.3 111.7 514.2 116.8C557 122 600 115 642.8 102.2C685.7 89.3 728.3 70.7 771.2 62.7C814 54.7 857 57.3 878.5 58.7L900 60L900 201L878.5 201C857 201 814 201 771.2 201C728.3 201 685.7 201 642.8 201C600 201 557 201 514.2 201C471.3 201 428.7 201 385.8 201C343 201 300 201 257.2 201C214.3 201 171.7 201 128.8 201C86 201 43 201 21.5 201L0 201Z" fill="#243b4b"></path><path d="M0 107L21.5 106.7C43 106.3 86 105.7 128.8 112C171.7 118.3 214.3 131.7 257.2 137C300 142.3 343 139.7 385.8 130.8C428.7 122 471.3 107 514.2 105.5C557 104 600 116 642.8 122.2C685.7 128.3 728.3 128.7 771.2 130.7C814 132.7 857 136.3 878.5 138.2L900 140L900 201L878.5 201C857 201 814 201 771.2 201C728.3 201 685.7 201 642.8 201C600 201 557 201 514.2 201C471.3 201 428.7 201 385.8 201C343 201 300 201 257.2 201C214.3 201 171.7 201 128.8 201C86 201 43 201 21.5 201L0 201Z" fill="#215165"></path><path d="M0 142L21.5 137.3C43 132.7 86 123.3 128.8 119.2C171.7 115 214.3 116 257.2 120C300 124 343 131 385.8 130.7C428.7 130.3 471.3 122.7 514.2 122.2C557 121.7 600 128.3 642.8 124.2C685.7 120 728.3 105 771.2 104C814 103 857 116 878.5 122.5L900 129L900 201L878.5 201C857 201 814 201 771.2 201C728.3 201 685.7 201 642.8 201C600 201 557 201 514.2 201C471.3 201 428.7 201 385.8 201C343 201 300 201 257.2 201C214.3 201 171.7 201 128.8 201C86 201 43 201 21.5 201L0 201Z" fill="#12697d"></path><path d="M0 119L21.5 124.8C43 130.7 86 142.3 128.8 143.2C171.7 144 214.3 134 257.2 136.3C300 138.7 343 153.3 385.8 155.5C428.7 157.7 471.3 147.3 514.2 145.3C557 143.3 600 149.7 642.8 148.3C685.7 147 728.3 138 771.2 132.8C814 127.7 857 126.3 878.5 125.7L900 125L900 201L878.5 201C857 201 814 201 771.2 201C728.3 201 685.7 201 642.8 201C600 201 557 201 514.2 201C471.3 201 428.7 201 385.8 201C343 201 300 201 257.2 201C214.3 201 171.7 201 128.8 201C86 201 43 201 21.5 201L0 201Z" fill="#008290"></path><path d="M0 136L21.5 137.5C43 139 86 142 128.8 146.2C171.7 150.3 214.3 155.7 257.2 157.5C300 159.3 343 157.7 385.8 155C428.7 152.3 471.3 148.7 514.2 151.5C557 154.3 600 163.7 642.8 168.7C685.7 173.7 728.3 174.3 771.2 166.7C814 159 857 143 878.5 135L900 127L900 201L878.5 201C857 201 814 201 771.2 201C728.3 201 685.7 201 642.8 201C600 201 557 201 514.2 201C471.3 201 428.7 201 385.8 201C343 201 300 201 257.2 201C214.3 201 171.7 201 128.8 201C86 201 43 201 21.5 201L0 201Z" fill="#009b9c"></path><path d="M0 178L21.5 177.7C43 177.3 86 176.7 128.8 173.2C171.7 169.7 214.3 163.3 257.2 163.5C300 163.7 343 170.3 385.8 174.7C428.7 179 471.3 181 514.2 178.5C557 176 600 169 642.8 168C685.7 167 728.3 172 771.2 174.8C814 177.7 857 178.3 878.5 178.7L900 179L900 201L878.5 201C857 201 814 201 771.2 201C728.3 201 685.7 201 642.8 201C600 201 557 201 514.2 201C471.3 201 428.7 201 385.8 201C343 201 300 201 257.2 201C214.3 201 171.7 201 128.8 201C86 201 43 201 21.5 201L0 201Z" fill="#00b49e"></path><path d="M0 181L21.5 177.8C43 174.7 86 168.3 128.8 170C171.7 171.7 214.3 181.3 257.2 182.5C300 183.7 343 176.3 385.8 171.5C428.7 166.7 471.3 164.3 514.2 168.2C557 172 600 182 642.8 184.8C685.7 187.7 728.3 183.3 771.2 182.2C814 181 857 183 878.5 184L900 185L900 201L878.5 201C857 201 814 201 771.2 201C728.3 201 685.7 201 642.8 201C600 201 557 201 514.2 201C471.3 201 428.7 201 385.8 201C343 201 300 201 257.2 201C214.3 201 171.7 201 128.8 201C86 201 43 201 21.5 201L0 201Z" fill="#14cc98"></path></svg>