<svg width="350" height="20" viewBox="0 0 350 20" fill="none" xmlns="http://www.w3.org/2000/svg">
<path d="M0 1.12927V19.9999C0 19.9999 31.8285 3.62845 82.1229 8.46983C134.916 13.5517 155.447 19.703 195.531 14.9634C257.612 7.62284 314.316 8.64303 350 5.71423V1.12927L212.151 1.14813L0 1.12927Z" fill="#1F2731" fill-opacity="0.2"/>
<path d="M0 2.154e-06V8.18754C0 8.18754 34.977 27.5229 114.714 10.4462C125.26 8.18754 135.877 7.11213 143.515 8.18754C156.147 9.96624 199.163 16.6574 244.073 16.6574C284.589 16.6574 325.105 0 325.105 0L211.855 0.0194643L0 2.154e-06Z" fill="#1F2731" fill-opacity="0.6"/>
<path d="M350 7.61905C296.528 3.38836 243.248 -6.08334 159.358 11.8578C96.7877 25.2393 29.6552 9.46793 0 2.9691V0H350V7.61905Z" fill="#1F2731"/>
</svg>
